<svg t="1679624890648" class="icon" viewBox="0 0 1024 1024" version="1.1" xmlns="http://www.w3.org/2000/svg" p-id="12499" width="200" height="200"><path d="M809.010019 214.988446c-163.765831-163.79653-430.255231-163.79653-594.022085 0-163.79653 163.766854-163.79653 430.257278 0 594.021062 163.767877 163.798577 430.256254 163.798577 594.022085 0C972.806549 645.245723 972.806549 378.7553 809.010019 214.988446zM766.38113 766.382665c-140.265604 140.293233-368.528378 140.263557-508.764306 0-140.294256-140.265604-140.294256-368.499725 0-508.779655 140.235928-140.250254 368.497679-140.27993 508.764306 0C906.644687 397.853263 906.644687 626.145713 766.38113 766.382665z" fill="#0f8cf5" p-id="12500"></path><path d="M514.170944 298.225195c-24.929786 0-45.217854 20.289092-45.217854 45.232181 0 24.989137 20.288069 45.307905 45.217854 45.307905 24.958438 0 45.278229-20.318768 45.278229-45.307905C559.449173 318.514287 539.129382 298.225195 514.170944 298.225195z" fill="#0f8cf5" p-id="12501"></path><path d="M514.170944 427.28969c-18.801205 0-34.150798 15.32094-34.150798 34.151821l0 267.547499c0 18.828834 15.349593 34.149774 34.150798 34.149774 18.830881 0 34.180474-15.32094 34.180474-34.149774L548.351418 461.441511C548.351418 442.611653 533.001825 427.28969 514.170944 427.28969z" fill="#0f8cf5" p-id="12502"></path></svg>