<svg t="1679624808354" class="icon" viewBox="0 0 1024 1024" version="1.1" xmlns="http://www.w3.org/2000/svg" p-id="8091" width="200" height="200"><path d="M918.795922 356.854687c-21.798121-51.476314-52.909055-97.631021-92.514092-137.236058-39.605037-39.605037-85.862083-70.818309-137.236058-92.514092C635.727364 104.590046 579.236458 93.128123 520.903458 93.128123s-114.823906 11.461923-168.142315 33.976414c-51.476314 21.798121-97.631021 52.909055-137.236058 92.514092s-70.818309 85.862083-92.514092 137.236058C100.496502 410.173096 89.034579 466.664002 89.034579 524.997002s11.461923 114.823906 33.976414 168.142315c21.798121 51.476314 52.909055 97.631021 92.514092 137.236058 39.605037 39.605037 85.862083 70.818309 137.236058 92.514092 53.21607 22.514491 109.809314 33.976414 168.142315 33.976414s114.823906-11.461923 168.142315-33.976414c51.476314-21.798121 97.631021-52.909055 137.236058-92.514092 39.605037-39.605037 70.818309-85.862083 92.514092-137.236058 22.514491-53.21607 33.976414-109.809314 33.976414-168.142315S941.310414 410.173096 918.795922 356.854687zM520.903458 911.836898c-213.273636 0-386.839896-173.56626-386.839896-386.839896s173.56626-386.839896 386.839896-386.839896 386.839896 173.56626 386.839896 386.839896S734.177094 911.836898 520.903458 911.836898z" p-id="8092" fill="#ea9518"></path><path d="M520.903458 637.364781c12.38297 0 22.514491-10.131521 22.514491-22.514491L543.417949 344.574056c0-12.38297-10.131521-22.514491-22.514491-22.514491s-22.514491 10.131521-22.514491 22.514491l0 270.378573C498.388967 627.23326 508.520488 637.364781 520.903458 637.364781z" p-id="8093" fill="#ea9518"></path><path d="M520.903458 705.931641m-30.701579 0a30 30 0 1 0 61.403158 0 30 30 0 1 0-61.403158 0Z" p-id="8094" fill="#ea9518"></path></svg>