<svg t="1680448231071" class="icon" viewBox="0 0 1024 1024" version="1.1" xmlns="http://www.w3.org/2000/svg" p-id="9071" width="32" height="32"><path d="M512 926.59712zM926.59712 512c0-228.22912001-185.79456-414.59712-414.59712-414.59712-228.22912001 0-414.59712 185.79456-414.59712 414.59712 0 228.22912001 185.79456 414.59712 414.59712 414.59712 228.22912001 0 414.59712-186.368 414.59712-414.59712zM482.75456 284.34432c0-16.05632 13.18912-29.24544 29.24544-29.24543999s29.24544 13.18912 29.24544 29.24543999v308.51072c0 8.02816-2.8672 14.90944-8.6016 20.64384s-12.61568 8.6016-20.64384 8.6016c-16.05632 0-29.24544-13.18912-29.24544-29.24544V284.34432zM512 768.90111999c-24.65791999 0-44.72832-20.0704-44.72832-44.72831999s20.0704-44.72832 44.72832-44.72832 44.72832 20.0704 44.72832 44.72832-20.0704 44.72832-44.72832 44.72831999z" fill="#f09105" p-id="9072"></path></svg>